# xmcd
#
# Track frame offsets: 
#        150
#        9675
#        26223
#        34718
#        50015
#        55575
#        67463
#        78040
#        92448
#        105340
#        119628
#        132575
#        142838
#
# Disc length: 2071 seconds
#
# Revision: 0
# Processed by: cddbd v1.4PL0 Copyright (c) Steve Scherf et al.
# Submitted via: ExactAudioCopy v0.90a11
#
DISCID=af08150d
DTITLE=Isokynä Lindholm - Fandjango
DYEAR=1900
DGENRE=
TTITLE0=Any Pyen
TTITLE1=Keskellä kapinaa
TTITLE2=Casanoova yöt
TTITLE3=Mun laulu juoksi jokeen
TTITLE4=Hyvin laisuojaton
TTITLE5=Lyhyen kadun päivä
TTITLE6=Fandjango
TTITLE7=Linnut laulaa niinkuin ennenkin
TTITLE8=Cabana-systerit
TTITLE9=Sure musta
TTITLE10=Sataa and 22
TTITLE11=Mä lähen himaan
TTITLE12=Juostaan, madame
EXTD=
EXTT0=
EXTT1=
EXTT2=
EXTT3=
EXTT4=
EXTT5=
EXTT6=
EXTT7=
EXTT8=
EXTT9=
EXTT10=
EXTT11=
EXTT12=
PLAYORDER=
